<mxfile host="app.diagrams.net" modified="2023-10-03T00:53:31.586Z" agent="Mozilla/5.0 (Macintosh; Intel Mac OS X 10_15_7) AppleWebKit/605.1.15 (KHTML, like Gecko) Version/17.0 Safari/605.1.15" version="21.8.2" etag="RNNOxTsFWNLpBWBQJ0xw" type="github">
  <diagram name="Page-1" id="nNGzBOdChjhAMCm50vvc">
    <mxGraphModel>
      <root>
        <mxCell id="0" />
        <mxCell id="1" parent="0" />
      </root>
    </mxGraphModel>
  </diagram>
</mxfile>
